<?xml version="1.0" encoding="UTF-8" standalone="no"?>
<!-- Created with Inkscape (http://www.inkscape.org/) -->

<svg
   width="195.15486mm"
   height="217.63399mm"
   viewBox="0 0 195.15486 217.63399"
   version="1.1"
   id="svg5"
   sodipodi:docname="tucan-open.svg"
   inkscape:version="1.1.1 (3bf5ae0d25, 2021-09-20)"
   xmlns:inkscape="http://www.inkscape.org/namespaces/inkscape"
   xmlns:sodipodi="http://sodipodi.sourceforge.net/DTD/sodipodi-0.dtd"
   xmlns="http://www.w3.org/2000/svg"
   xmlns:svg="http://www.w3.org/2000/svg">
  <sodipodi:namedview
     id="namedview7"
     pagecolor="#ffffff"
     bordercolor="#111111"
     borderopacity="1"
     inkscape:pageshadow="0"
     inkscape:pageopacity="0"
     inkscape:pagecheckerboard="1"
     inkscape:document-units="mm"
     showgrid="false"
     inkscape:snap-page="false"
     inkscape:snap-grids="true"
     inkscape:snap-to-guides="true"
     inkscape:snap-nodes="true"
     inkscape:object-paths="false"
     showguides="true"
     inkscape:guide-bbox="true"
     inkscape:zoom="0.15055284"
     inkscape:cx="308.86166"
     inkscape:cy="325.46713"
     inkscape:window-width="1366"
     inkscape:window-height="705"
     inkscape:window-x="-8"
     inkscape:window-y="-8"
     inkscape:window-maximized="1"
     inkscape:current-layer="layer1"
     inkscape:lockguides="true"
     fit-margin-left="10"
     fit-margin-right="10"
     fit-margin-top="0"
     fit-margin-bottom="0" />
  <defs
     id="defs2" />
  <g
     inkscape:label="Livello 1"
     inkscape:groupmode="layer"
     id="layer1"
     transform="translate(-0.252092,-37.772998)">
    <path
       style="opacity:1;fill:#333333;stroke:none;stroke-width:0.264583px;stroke-linecap:butt;stroke-linejoin:miter;stroke-opacity:1"
       d="m 72.932591,194.194 c -2.636118,8.56739 -4.942721,54.53469 -17.079846,58.76346 0,0 -10.764148,3.35007 -13.894537,0.0549 0,0 -3.463547,2.07715 -8.579771,2.3412 -7.529023,0.38858 -17.612863,-1.35691 -17.122377,-4.75761 0,0 1.318059,-27.51449 29.216971,-62.55288 z"
       id="path1019"
       sodipodi:nodetypes="cccsccc" />
    <path
       style="fill:#a05a2c;stroke:none;stroke-width:0.264583px;stroke-linecap:butt;stroke-linejoin:miter;stroke-opacity:1"
       d="m 12.737447,217.77928 c 0,0 37.124999,-1.70868 42.561715,0.62134 5.436714,2.33002 13.669454,1.39801 13.669454,1.39801 0,0 18.950837,-0.77667 22.523535,0.46601 3.5727,1.24267 14.368459,-1.70868 14.368459,-1.70868 0,0 21.04786,3.41736 30.67861,3.26203 9.63075,-0.15534 36.659,0.62133 36.659,0.62133 l -3.88337,-10.40742 c 0,0 -32.62029,-0.15534 -39.92103,-1.86402 -7.30073,-1.70868 -24.23221,-0.93201 -24.23221,-0.93201 l -15.688809,-2.01935 -22.834206,-0.15533 c 0,0 -41.008366,-1.70869 -56.386503,-4.97071 z"
       id="path1635"
       sodipodi:nodetypes="cscscsccsccccc" />
    <path
       id="path2500"
       style="opacity:1;fill:#1a1a1a;stroke:none;stroke-width:0.264583px;stroke-linecap:butt;stroke-linejoin:miter;stroke-opacity:1"
       d="m 60.411031,199.24656 c 0,0 -0.219675,1.53774 1.098383,4.39353 l -8.347706,0.87871 c 0,0 -1.098382,-1.97709 -1.537735,-3.29514 0,0 -0.219679,0.8787 -1.318059,-4.83289 0,0 -3.954177,-0.65903 -10.544471,-8.56738 0,0 21.308618,-23.28571 12.082205,-46.79109 0,0 7.249324,-1.97709 9.006737,-19.11185 1.75741,-17.13477 5.491909,-46.132066 17.354441,-53.820741 l 9.665766,17.574118 0.659029,8.567383 10.764148,1.757411 10.544471,10.324799 c 0,0 -4.17386,10.76414 7.02965,36.90564 11.2035,26.1415 -28.777622,51.84365 -28.777622,51.84365 0,0 -3.514825,-0.87871 0.878705,5.71159 l -6.590293,3.07547 c 0,0 -1.098383,1.09839 -5.71159,-5.05256 0,0 -7.249322,3.29515 -16.256059,0.43935 z"
       sodipodi:nodetypes="cccccccscccccsccccc" />
    <path
       style="opacity:1;fill:#ffffff;stroke:none;stroke-width:0.264583px;stroke-linecap:butt;stroke-linejoin:miter;stroke-opacity:1"
       d="m 103.24794,155.53094 c -16.256055,2.19677 -21.909219,2.62745 -31.413733,-8.3477 0,0 -15.377353,-24.82344 -3.075471,-49.646884 0,0 -4.613205,-14.278969 9.44609,-29.436647 v 0 0 l 13.180587,15.651945 -1.427898,8.567383 11.862525,1.372979 8.0182,12.631404 c 0,0 -3.95417,10.32479 5.71159,34.04985 0,0 3.95417,12.96091 -12.30189,15.15767 z"
       id="path1527"
       sodipodi:nodetypes="sccscccccccs" />
    <path
       style="opacity:1;fill:#333333;stroke:none;stroke-width:0.292532px;stroke-linecap:butt;stroke-linejoin:miter;stroke-opacity:1"
       d="m 24.611468,209.58056 c 0,0 -8.533915,-58.387 32.736796,-74.44031 0,0 18.391492,41.31655 -32.736796,74.44031 z"
       id="path2636"
       sodipodi:nodetypes="ccc" />
    <path
       id="path214"
       style="opacity:1;fill:#ff8c00;stroke:none;stroke-width:0.264583px;stroke-linecap:butt;stroke-linejoin:miter;stroke-opacity:1"
       d="m 81.719649,95.778943 c 0,0 3.734501,-5.931263 0.659031,-13.61994 -3.075471,-7.688677 -4.173854,-14.059294 -4.173854,-14.059294 v 0 0 c 0,0 5.607494,-15.649059 19.929198,-22.753839 28.354386,-14.066179 81.368436,-11.343116 84.636806,32.4196 0,0 -42.39756,-38.004027 -90.946063,12.960916 0,0 62.827473,-32.512119 93.582183,12.301884 0,0 -34.26953,-13.839619 -75.56871,3.29515 0,0 -6.37062,1.97708 -16.256061,-2.41645 0,0 -6.590294,-7.688673 -11.86253,-8.128027 z"
       sodipodi:nodetypes="cscccscccccc" />
    <path
       id="path5517"
       style="fill:#ff6600;stroke:none;stroke-width:0.264583px;stroke-linecap:butt;stroke-linejoin:miter;stroke-opacity:1"
       d="m 133.09398,37.776496 c -12.55233,-0.117546 -25.2128,2.733799 -34.959621,7.569047 -14.32171,7.104779 -19.929533,22.754166 -19.929533,22.754166 0,0 0.414782,2.370402 1.422654,5.940205 0.02558,-0.05012 0.0448,-0.09311 0.07079,-0.143658 0.153931,-0.299355 0.315108,-0.606057 0.483174,-0.919324 0.168068,-0.313269 0.343146,-0.633113 0.525549,-0.958598 0.182407,-0.325485 0.372015,-0.656699 0.568958,-0.992704 0.196942,-0.336007 0.401201,-0.676815 0.612883,-1.021643 0.211683,-0.344829 0.430702,-0.693976 0.657323,-1.045933 0.226624,-0.351954 0.461039,-0.706633 0.702802,-1.064016 0.241761,-0.357383 0.491168,-0.717373 0.748274,-1.078487 0.257106,-0.361116 0.521618,-0.723606 0.794266,-1.086757 0.27265,-0.363149 0.553415,-0.726885 0.841809,-1.090372 0.288395,-0.363487 0.584496,-0.726697 0.888835,-1.088821 0.30434,-0.362128 0.616922,-0.723035 0.937411,-1.082106 0.320487,-0.359069 0.64915,-0.716421 0.985986,-1.070735 0.336836,-0.354317 0.681694,-0.705818 1.035079,-1.053682 0.353385,-0.347863 0.715068,-0.691748 1.085204,-1.031462 0.370139,-0.339714 0.748761,-0.675238 1.135849,-1.005107 0.38709,-0.329869 0.782764,-0.654225 1.187008,-0.97255 0.404241,-0.318326 0.817086,-0.630775 1.238684,-0.935861 0.421597,-0.305085 0.851725,-0.602821 1.290878,-0.892968 0.439153,-0.290148 0.887193,-0.572429 1.344102,-0.845945 0.456911,-0.273513 0.92298,-0.538567 1.397849,-0.79375 0.470075,-0.252605 0.946304,-0.500028 1.428853,-0.743106 0.482554,-0.243078 0.971114,-0.481346 1.465544,-0.714684 0.49442,-0.233339 0.99448,-0.461846 1.50017,-0.685231 0.50569,-0.223383 1.01688,-0.44204 1.53324,-0.655257 0.51636,-0.213217 1.03834,-0.420896 1.56476,-0.623734 0.52643,-0.202837 1.0573,-0.400481 1.59319,-0.592727 0.53589,-0.192249 1.07685,-0.379249 1.6216,-0.56069 0.54475,-0.181443 1.09341,-0.357708 1.64641,-0.528134 0.55301,-0.170426 1.11004,-0.335346 1.67071,-0.494544 0.56066,-0.159194 1.1252,-0.312684 1.69291,-0.460435 0.56772,-0.147754 1.13891,-0.289717 1.71308,-0.425816 0.57417,-0.136099 1.15114,-0.265924 1.73116,-0.390157 0.58002,-0.12423 1.16295,-0.242866 1.74821,-0.355015 0.58527,-0.112152 1.17277,-0.217953 1.76268,-0.317812 0.58991,-0.09986 1.18217,-0.193768 1.77612,-0.28112 0.59396,-0.08735 1.18958,-0.168243 1.78697,-0.242877 0.5974,-0.07464 1.19656,-0.142936 1.7968,-0.204639 0.60022,-0.0617 1.20156,-0.116806 1.80402,-0.165365 0.60246,-0.04856 1.20613,-0.09037 1.81022,-0.125574 0.6041,-0.0352 1.20872,-0.06363 1.81385,-0.08527 0.60513,-0.02164 1.21087,-0.03659 1.81642,-0.04444 0.60556,-0.0079 1.21105,-0.0087 1.81643,-0.0026 0.60538,0.0061 1.21027,0.01945 1.81488,0.03979 0.6046,0.02035 1.20905,0.04792 1.81228,0.08268 0.60323,0.03477 1.20537,0.07669 1.80661,0.12609 0.60124,0.0494 1.20123,0.106288 1.7999,0.170532 0.59865,0.06424 1.19614,0.135673 1.79161,0.214974 0.59549,0.0793 1.18908,0.166396 1.78077,0.260966 0.59169,0.09457 1.18158,0.196906 1.76888,0.306959 0.5873,0.110054 1.17211,0.227716 1.75442,0.353465 0.58232,0.125751 1.16168,0.259353 1.7384,0.40101 0.5767,0.141658 1.15083,0.291291 1.72135,0.449067 0.57051,0.157779 1.13747,0.323535 1.70119,0.497644 0.5637,0.174112 1.12419,0.356598 1.68049,0.547254 0.55631,0.190656 1.10846,0.389448 1.65677,0.596863 0.54831,0.207415 1.09275,0.423637 1.63245,0.648023 0.53971,0.224387 1.07458,0.457096 1.60508,0.698666 0.53048,0.24157 1.05648,0.491892 1.57716,0.750859 0.5207,0.258966 1.03639,0.526476 1.54667,0.80305 0.51028,0.276577 1.01486,0.562398 1.51413,0.856797 0.49923,0.294397 0.99288,0.597588 1.48052,0.910021 0.48763,0.312431 0.96946,0.634119 1.44486,0.964798 0.47543,0.330679 0.94457,0.670439 1.40717,1.019577 0.4626,0.349139 0.91872,0.707576 1.36787,1.075386 0.44916,0.367811 0.89138,0.745019 1.32654,1.131713 0.43513,0.386697 0.86313,0.782767 1.28362,1.188559 0.42054,0.405794 0.83341,0.821332 1.2387,1.246436 0.40526,0.425103 0.80325,0.859687 1.19269,1.304314 0.38944,0.444624 0.7706,0.898861 1.14361,1.363223 0.1865,0.232182 0.37065,0.467196 0.55292,0.70435 0.18227,0.237154 0.36256,0.476665 0.54055,0.71882 0.17798,0.242154 0.35398,0.486621 0.5276,0.733803 0.17362,0.247184 0.34502,0.497076 0.51419,0.749311 0.16916,0.252235 0.3361,0.506978 0.50074,0.764294 0.15289,0.238932 0.30325,0.480652 0.45216,0.723987 -6.36044,-21.178538 -26.94781,-29.597404 -47.83635,-29.793014 z" />
    <path
       id="path214-0"
       style="fill:#1a1a1a;stroke:none;stroke-width:0.999999px;stroke-linecap:butt;stroke-linejoin:miter;stroke-opacity:1"
       d="m 300.16602,246.85156 c -3.10048,6.43987 -4.5879,10.53321 -4.5879,10.53321 0,0 4.14962,24.07715 15.77344,53.13671 C 322.97539,339.58105 308.86133,362 308.86133,362 c 19.92656,1.66055 44.83594,30.71875 44.83594,30.71875 37.36229,16.60547 61.43945,9.13281 61.43945,9.13281 -43.58934,-47.74069 -93.59375,-47.09765 -93.59375,-47.09765 19.92856,-43.74945 -6.78139,-88.34445 -21.37695,-107.90235 z"
       transform="scale(0.26458333)" />
    <path
       id="path878"
       style="fill:#4d4d4d;stroke:none;stroke-width:0.264583px;stroke-linecap:butt;stroke-linejoin:miter;stroke-opacity:1"
       d="m 182.77083,77.76547 c 0,0 0.3688,-25.728338 -27.90211,-28.679699 0,0 -25.16422,-3.572698 -4.81538,15.378139 0,0 16.19387,0.196215 32.71749,13.30156 z" />
    <path
       style="fill:#ffffff;stroke:#000000;stroke-width:0.264583px;stroke-linecap:butt;stroke-linejoin:miter;stroke-opacity:1"
       d="m 78.910039,92.11349 c 0,0 -10.789555,-3.325127 -5.747385,-13.669454 0,0 4.194039,-5.59205 7.611403,4.815377 3.417364,10.407426 -1.864018,8.854077 -1.864018,8.854077 z"
       id="path1260"
       sodipodi:nodetypes="ccsc" />
    <path
       style="fill:#aaaaff;stroke:none;stroke-width:0.264583px;stroke-linecap:butt;stroke-linejoin:miter;stroke-opacity:1"
       d="m 89.472802,207.21652 c 0,0 3.184362,0.46601 4.504707,6.52406 1.320345,6.05806 -2.485356,6.52406 -2.485356,6.52406 4.194038,3.10669 8.854077,0 8.854077,0 5.28138,2.40769 5.51438,-1.70868 5.51438,-1.70868 0,0 -0.15533,-4.81538 -0.31067,-7.92208 -0.15533,-3.10669 -2.87369,-6.21338 -6.213384,-6.99006 -3.339697,-0.77667 -10.367583,-2.85952 -10.367583,-2.85952 l -3.767878,-1.02385 -2.822416,4.09932 c 0,0 3.909761,0.25006 4.531098,1.41507 0,0 -1.009674,0.23299 -1.242676,1.94168 z"
       id="path1488"
       sodipodi:nodetypes="cscccsscccccc" />
    <path
       style="fill:#aaaaff;stroke:none;stroke-width:0.264583px;stroke-linecap:butt;stroke-linejoin:miter;stroke-opacity:1"
       d="m 68.968614,219.79863 c 0,0 -1.631011,3.3397 -4.660038,0.93201 0,0 -1.631016,2.60186 -3.844536,2.09702 -2.21352,-0.50484 -4.004245,-0.89317 -3.572697,-3.8057 0,0 3.602066,-9.72519 -0.791463,-12.47115 l -2.691037,-0.0824 c 0,0 -0.05492,-2.16931 1.757412,-2.74596 1.812331,-0.57665 6.343159,-0.0824 6.343159,-0.0824 0,0 9.323216,3.49877 7.4592,16.15856 z"
       id="path2210"
       sodipodi:nodetypes="ccscccscc" />
    <path
       style="fill:#1a1a1a;stroke:#000000;stroke-width:0.264583px;stroke-linecap:butt;stroke-linejoin:miter;stroke-opacity:1"
       d="m 79.303207,90.012434 c 2.141844,-2.800874 -0.109839,-5.821426 -0.109839,-5.821426 0,0 -2.086925,-3.350067 -4.173852,-2.196764 -2.086928,1.153301 -1.26314,4.228772 -1.26314,4.228772 0.252419,2.019351 3.350065,5.739045 5.546831,3.789418 z"
       id="path2817"
       sodipodi:nodetypes="ccscc" />
    <path
       style="fill:#1a1a1a;stroke:none;stroke-width:0.264583px;stroke-linecap:butt;stroke-linejoin:miter;stroke-opacity:1"
       d="m 98.195383,184.96759 c 0,0 24.823437,-1.97709 20.869267,-34.92856 z"
       id="path3944"
       sodipodi:nodetypes="ccc" />
  </g>
</svg>
